# Blender 5.0.1
# www.blender.org
mtllib hall.mtl
o Plane
v -15.679355 0.000000 15.679355
v 15.679355 0.000000 15.679355
v -15.679355 0.000000 -15.679355
v 15.679355 0.000000 -15.679355
v -15.679355 3.000000 15.679355
v 15.679355 3.000000 15.679355
v 15.679355 3.000000 15.679355
v 15.679355 3.000000 -15.679355
v -15.679355 3.000000 15.679355
v -15.679355 3.000000 -15.679355
v -15.679355 3.000000 -15.679355
v 15.679355 3.000000 -15.679355
vn -0.0000 1.0000 -0.0000
vn -0.0000 -0.0000 -1.0000
vn -1.0000 -0.0000 -0.0000
vn 1.0000 -0.0000 -0.0000
vn -0.0000 -0.0000 1.0000
vt 0.000000 0.000000
vt 1.000000 0.000000
vt 1.000000 1.000000
vt 0.000000 1.000000
s 0
usemtl Material.001
f 1/1/1 2/2/1 4/3/1 3/4/1
f 2/2/2 1/1/2 5/1/2 6/2/2
f 4/3/3 2/2/3 7/2/3 8/3/3
f 1/1/4 3/4/4 10/4/4 9/1/4
f 3/4/5 4/3/5 12/3/5 11/4/5
