# Blender 5.0.1
# www.blender.org
mtllib tronco.mtl
o tree.001
v -29.844730 4.587492 -3.702715
v -30.635719 4.587492 -2.750090
v -29.688421 4.718262 -1.963524
v -28.897432 4.718262 -2.916150
v -28.820082 5.662390 -2.841325
v -29.620920 5.662390 -1.896965
v -30.517700 6.050467 -2.657454
v -29.716860 6.050467 -3.601814
v -22.455156 18.711609 7.806440
v -23.118769 18.711609 7.710577
v -23.075569 19.310169 7.411523
v -22.411955 19.310169 7.507386
v -25.988220 20.376518 0.784091
v -26.091331 20.376518 0.121566
v -25.562094 20.779875 0.039199
v -25.458982 20.779875 0.701724
v -17.540024 18.287447 0.539781
v -17.717079 18.287447 1.186483
v -18.149107 18.786379 1.068201
v -17.972052 18.786379 0.421499
v -26.318165 16.340689 -0.690758
v -26.398537 16.383139 -0.026447
v -26.592697 17.021683 -0.090741
v -26.512325 16.979233 -0.755053
v -28.469545 9.802053 -1.890300
v -28.723494 9.292355 -1.536340
v -29.062151 9.085709 -2.076877
v -28.808203 9.595408 -2.430837
v -30.040323 16.504309 -7.456972
v -29.490549 16.504309 -7.073151
v -29.707676 17.057211 -6.762143
v -30.257452 17.057211 -7.145964
v -36.489975 18.134453 -0.207988
v -36.761246 18.134453 -0.821162
v -36.218918 18.447317 -1.061092
v -35.947647 18.447317 -0.447918
v -29.494583 -0.496774 -4.041213
v -30.904083 -0.496774 -2.343686
v -29.216049 -0.263750 -0.942068
v -27.806549 -0.263750 -2.639595
v -29.630285 1.434769 -3.940660
v -30.830189 1.434769 -2.495559
v -29.393169 1.633142 -1.302366
v -28.193266 1.633142 -2.747466
v -29.727697 2.821301 -3.868479
v -30.777145 2.821301 -2.604580
v -29.520313 2.994800 -1.561001
v -28.470867 2.994800 -2.824900
v -29.814491 4.056687 -3.804167
v -30.729883 4.056687 -2.701716
v -29.633598 4.208024 -1.791442
v -28.718204 4.208024 -2.893893
v -33.937710 12.844379 -1.337128
v -34.208981 12.844379 -1.950303
v -33.632492 13.105350 -2.275407
v -33.395378 13.157244 -1.577058
v -34.221294 13.432166 -1.211668
v -34.492569 13.432166 -1.824842
v -33.950237 13.745030 -2.064772
v -33.678963 13.745030 -1.451598
v -34.504879 14.019951 -1.086208
v -34.776150 14.019951 -1.699383
v -34.233822 14.332816 -1.939312
v -33.962551 14.332816 -1.326138
v -34.788464 14.607737 -0.960748
v -35.059738 14.607737 -1.573922
v -34.517410 14.920602 -1.813852
v -34.246136 14.920602 -1.200678
v -35.072048 15.195522 -0.835288
v -35.343323 15.195522 -1.448462
v -34.800995 15.508388 -1.688392
v -34.529720 15.508388 -1.075218
v -35.355637 15.783310 -0.709828
v -35.626907 15.783310 -1.323002
v -35.084579 16.096174 -1.562932
v -34.813305 16.096174 -0.949758
v -35.639221 16.371094 -0.584368
v -35.910492 16.371094 -1.197542
v -35.368164 16.683958 -1.437472
v -35.096889 16.683958 -0.824298
v -35.922806 16.958881 -0.458908
v -36.194077 16.958881 -1.072082
v -35.651749 17.271746 -1.312012
v -35.380474 17.271746 -0.698838
v -36.206390 17.546667 -0.333448
v -36.477661 17.546667 -0.946622
v -35.935333 17.859531 -1.186552
v -35.664062 17.859531 -0.573378
v -33.381203 12.500552 -2.671589
v -32.831429 12.500552 -2.287768
v -33.048557 13.053455 -1.976761
v -33.077488 12.864529 -3.106625
v -32.527714 12.864529 -2.722803
v -32.744839 13.417432 -2.411795
v -33.294613 13.417432 -2.795617
v -32.773769 13.228508 -3.541659
v -32.223995 13.228508 -3.157838
v -32.441124 13.781411 -2.846830
v -32.990898 13.781411 -3.230651
v -32.470055 13.592484 -3.976694
v -31.920280 13.592484 -3.592873
v -32.137405 14.145388 -3.281865
v -32.687183 14.145388 -3.665686
v -32.166340 13.956464 -4.411729
v -31.616564 13.956464 -4.027907
v -31.833691 14.509367 -3.716900
v -32.383465 14.509367 -4.100721
v -31.862621 14.320440 -4.846764
v -31.312847 14.320440 -4.462942
v -31.529974 14.873343 -4.151935
v -32.079750 14.873343 -4.535756
v -31.558907 14.684419 -5.281798
v -31.009130 14.684419 -4.897977
v -31.226257 15.237321 -4.586969
v -31.776033 15.237321 -4.970790
v -31.255190 15.048396 -5.716833
v -30.705414 15.048396 -5.333012
v -30.922543 15.601299 -5.022004
v -31.472317 15.601299 -5.405825
v -30.951473 15.412375 -6.151868
v -30.401697 15.412375 -5.768046
v -30.618826 15.965279 -5.457038
v -31.168600 15.965279 -5.840860
v -30.647757 15.776352 -6.586902
v -30.097982 15.776352 -6.203080
v -30.315109 16.329254 -5.892073
v -30.864883 16.329254 -6.275895
v -30.344040 16.140329 -7.021937
v -29.794266 16.140329 -6.638116
v -30.011393 16.693233 -6.327108
v -30.561169 16.693233 -6.710929
v -32.896301 8.281845 -1.430122
v -34.084007 8.278441 -1.323729
v -34.084007 8.278441 -2.454551
v -32.907551 8.443640 -2.409195
v -33.008167 9.266149 -1.378712
v -34.029022 9.266149 -1.378712
v -34.029022 9.266149 -2.399569
v -33.008167 9.266149 -2.399569
v -33.056625 10.136652 -1.427171
v -33.980564 10.136652 -1.427171
v -33.980564 10.136652 -2.351110
v -33.056625 10.136652 -2.351110
v -33.101280 10.938828 -1.471826
v -33.935909 10.938828 -1.471826
v -33.935909 10.938828 -2.306455
v -33.101280 10.938828 -2.306455
v -33.143307 11.693748 -1.513850
v -33.893887 11.693748 -1.513850
v -33.893887 11.693748 -2.264431
v -33.143307 11.693748 -2.264431
v -21.403240 14.997466 0.524516
v -22.066853 14.997466 0.428653
v -22.076374 15.576323 0.096550
v -21.411808 15.648633 0.193108
v -21.484158 15.283169 1.084663
v -22.147770 15.283169 0.988801
v -22.104568 15.881727 0.689747
v -21.440956 15.881727 0.785610
v -21.565073 15.568871 1.644812
v -22.228685 15.568871 1.548949
v -22.185486 16.167431 1.249895
v -21.521873 16.167431 1.345757
v -21.645990 15.854576 2.204960
v -22.309603 15.854576 2.109097
v -22.266403 16.453135 1.810043
v -21.602789 16.453135 1.905906
v -21.726906 16.140280 2.765107
v -22.390518 16.140280 2.669244
v -22.347319 16.738838 2.370191
v -21.683706 16.738838 2.466053
v -21.807823 16.425982 3.325255
v -22.471436 16.425982 3.229393
v -22.428236 17.024540 2.930339
v -21.764622 17.024540 3.026201
v -21.888741 16.711685 3.885404
v -22.552353 16.711685 3.789542
v -22.509151 17.310246 3.490487
v -21.845539 17.310246 3.586349
v -21.969656 16.997391 4.445551
v -22.633268 16.997391 4.349689
v -22.590069 17.595949 4.050635
v -21.926456 17.595949 4.146497
v -22.050573 17.283092 5.005699
v -22.714186 17.283092 4.909836
v -22.670986 17.881651 4.610784
v -22.007372 17.881651 4.706645
v -22.131489 17.568796 5.565848
v -22.795101 17.568796 5.469985
v -22.751902 18.167355 5.170931
v -22.088289 18.167355 5.266793
v -22.212406 17.854500 6.125995
v -22.876019 17.854500 6.030133
v -22.832819 18.453058 5.731079
v -22.169205 18.453058 5.826941
v -22.293324 18.140203 6.686143
v -22.956936 18.140203 6.590281
v -22.913734 18.738762 6.291228
v -22.250122 18.738762 6.387090
v -22.374239 18.425905 7.246292
v -23.037851 18.425905 7.150429
v -22.994652 19.024464 6.851375
v -22.331039 19.024464 6.947237
v -22.222195 15.315469 0.197968
v -22.223423 15.415369 -0.535119
v -21.796070 15.718824 -0.546925
v -21.692957 15.718824 0.115600
v -22.598797 15.821575 0.256580
v -22.701908 15.821575 -0.405945
v -22.172672 16.224928 -0.488312
v -22.069559 16.224928 0.174213
v -22.975399 16.327679 0.315193
v -23.078510 16.327679 -0.347332
v -22.549274 16.731035 -0.429700
v -22.446163 16.731035 0.232825
v -23.352003 16.833782 0.373805
v -23.455114 16.833782 -0.288720
v -22.925877 17.237139 -0.371088
v -22.822765 17.237139 0.291438
v -23.728605 17.339890 0.432417
v -23.831717 17.339890 -0.230108
v -23.302479 17.743244 -0.312476
v -23.199368 17.743244 0.350049
v -24.105207 17.845993 0.491030
v -24.208319 17.845993 -0.171495
v -23.679081 18.249350 -0.253863
v -23.575970 18.249350 0.408662
v -24.481810 18.352098 0.549642
v -24.584921 18.352098 -0.112883
v -24.055683 18.755455 -0.195250
v -23.952572 18.755455 0.467275
v -24.858412 18.858204 0.608255
v -24.961525 18.858204 -0.054271
v -24.432287 19.261559 -0.136638
v -24.329176 19.261559 0.525887
v -25.235016 19.364309 0.666867
v -25.338127 19.364309 0.004342
v -24.808889 19.767662 -0.078026
v -24.705778 19.767662 0.584499
v -25.611618 19.870415 0.725479
v -25.714729 19.870415 0.062954
v -25.185492 20.273769 -0.019413
v -25.082380 20.273769 0.643112
v -20.854492 15.202310 -0.367665
v -21.031548 15.202310 0.279036
v -21.286520 15.701241 -0.485947
v -20.380997 15.643044 -0.238030
v -20.558054 15.643044 0.408671
v -20.990080 16.141975 0.290390
v -20.813025 16.141975 -0.356312
v -19.907501 16.083778 -0.108395
v -20.084557 16.083778 0.538306
v -20.516584 16.582710 0.420025
v -20.339529 16.582710 -0.226677
v -19.434006 16.524511 0.021240
v -19.611061 16.524511 0.667942
v -20.043089 17.023443 0.549660
v -19.866034 17.023443 -0.097041
v -18.960510 16.965246 0.150875
v -19.137566 16.965246 0.797577
v -19.569593 17.464176 0.679295
v -19.392538 17.464176 0.032594
v -18.487015 17.405981 0.280511
v -18.664070 17.405981 0.927212
v -19.096098 17.904911 0.808931
v -18.919041 17.904911 0.162229
v -18.013519 17.846714 0.410146
v -18.190575 17.846714 1.056848
v -18.622602 18.345646 0.938566
v -18.445547 18.345646 0.291864
v -25.958864 16.135607 -0.687342
v -25.966421 16.176956 -0.018161
v -25.746273 16.809229 -0.054742
v -25.738716 16.767879 -0.723924
v -25.356001 15.926840 -0.667635
v -25.363558 15.968187 0.001547
v -25.143410 16.600460 -0.035035
v -25.135853 16.559113 -0.704217
v -24.753138 15.718071 -0.647928
v -24.760695 15.759420 0.021254
v -24.540546 16.391693 -0.015327
v -24.532990 16.350344 -0.684510
v -24.150276 15.509303 -0.628220
v -24.157833 15.550652 0.040962
v -23.937685 16.182924 0.004380
v -23.930128 16.141575 -0.664802
v -23.547413 15.300535 -0.608513
v -23.554970 15.341884 0.060669
v -23.334822 15.974155 0.024087
v -23.327265 15.932808 -0.645095
v -22.944550 15.091767 -0.588806
v -22.952106 15.133116 0.080376
v -22.731960 15.765388 0.043794
v -22.724403 15.724039 -0.625387
v -22.341688 14.882999 -0.569098
v -22.349245 14.924348 0.100084
v -31.914925 7.897553 -2.162943
v -32.164219 7.897553 -0.987813
v -31.248016 8.885842 -1.990233
v -31.484631 8.885842 -0.874874
v -32.383453 9.560948 -1.065552
v -32.146839 9.560948 -2.180911
v -30.660244 9.756860 -1.838018
v -30.885681 9.756860 -0.775337
v -31.742054 10.400080 -0.957010
v -31.516615 10.400080 -2.019690
v -30.118607 10.559508 -1.697749
v -30.333746 10.559508 -0.683613
v -31.150999 11.173347 -0.856987
v -30.935858 11.173347 -1.871122
v -29.608877 11.314872 -1.565745
v -29.814325 11.314872 -0.597293
v -30.594763 11.901059 -0.762856
v -30.389315 11.901059 -1.731308
v -29.123213 12.034575 -1.439972
v -29.319427 12.034575 -0.515048
v -30.064789 12.594415 -0.673169
v -29.868574 12.594415 -1.598094
v -28.656689 12.725913 -1.319156
v -28.844034 12.725913 -0.436044
v -29.555700 13.260443 -0.587018
v -29.368355 13.260443 -1.470130
v -28.205950 13.393861 -1.202428
v -28.384726 13.393861 -0.359713
v -29.063837 13.903942 -0.503780
v -28.885061 13.903942 -1.346496
v -27.768570 14.042012 -1.089159
v -27.939028 14.042012 -0.285644
v -28.586550 14.528364 -0.423010
v -28.416092 14.528364 -1.226526
v -27.342724 14.673070 -0.978878
v -27.505087 14.673070 -0.213529
v -28.121851 15.136320 -0.344370
v -27.959490 15.136320 -1.109720
v -26.926996 15.289135 -0.871216
v -27.081453 15.289135 -0.143127
v -27.668192 15.729834 -0.267599
v -27.513735 15.729834 -0.995688
v -26.520254 15.891884 -0.765882
v -26.666979 15.891884 -0.074247
v -27.224340 16.310516 -0.192486
v -27.077616 16.310516 -0.884122
v -29.333364 9.667775 -1.784637
v -29.013237 9.090323 -1.508636
v -28.891277 8.842417 -2.168770
v -29.211403 9.419868 -2.444770
v -29.965508 9.382285 -1.751322
v -29.609982 8.740979 -1.444801
v -29.474533 8.465659 -2.177932
v -29.830059 9.106966 -2.484452
v -30.768152 9.019794 -1.709021
v -30.367680 8.297409 -1.363749
v -30.215109 7.987283 -2.189566
v -30.615582 8.709666 -2.534838
v -31.706409 8.596057 -1.659573
v -31.253393 7.778897 -1.269002
v -31.080805 7.428082 -2.203165
v -31.533819 8.245241 -2.593736
v -32.248363 7.196424 -1.162567
v -32.053291 6.799901 -2.218441
v -32.565327 7.723527 -2.659900
v -28.776632 6.307915 -2.696828
v -29.471268 6.307915 -1.877706
v -30.249119 6.644527 -2.537342
v -29.554483 6.644527 -3.356464
v -28.641443 7.178920 -2.506167
v -29.261082 7.178920 -1.775483
v -29.954950 7.479189 -2.363900
v -29.335314 7.479189 -3.094584
v -28.521618 7.950949 -2.337172
v -29.074781 7.950949 -1.684875
v -29.694212 8.219006 -2.210167
v -29.141048 8.219006 -2.862463
v -28.410791 8.664995 -2.180868
v -28.902472 8.664995 -1.601073
v -29.453054 8.903257 -2.067980
v -28.961374 8.903257 -2.647775
v -21.403240 14.997466 0.524516
v -22.066853 14.997466 0.428653
v -22.076374 15.576323 0.096550
v -21.411808 15.648633 0.193108
v -21.692957 15.718824 0.115600
v -21.796070 15.718824 -0.546925
v -22.223423 15.415369 -0.535119
v -22.222195 15.315469 0.197968
v -22.223423 15.415369 -0.535119
v -22.076374 15.576323 0.096550
v -22.349245 14.924348 0.100084
v -22.341688 14.882999 -0.569098
v -32.565327 7.723527 -2.659900
v -32.053291 6.799901 -2.218441
v -32.248363 7.196424 -1.162567
v -32.896301 8.281845 -1.430122
vn -0.6434 0.0844 0.7609
vn -0.0860 0.0825 -0.9929
vn -0.7692 -0.0208 -0.6387
vn 0.6296 0.0844 -0.7723
vn 0.7554 0.1897 0.6272
vn -0.0355 -0.9686 0.2461
vn -0.7651 0.0889 0.6378
vn -0.8588 0.5075 0.0706
vn 0.0813 -0.9944 0.0675
vn -0.4267 0.8845 0.1888
vn 0.5518 -0.8202 0.1511
vn 0.3181 0.4333 0.8432
vn 0.4720 0.5657 -0.6761
vn 0.7177 0.6680 0.1965
vn -0.5944 0.7988 0.0925
vn -0.1276 0.4506 0.8835
vn 0.6130 -0.0374 -0.7892
vn -0.3042 -0.5428 -0.7828
vn 0.6428 0.0011 -0.7660
vn 0.7617 -0.1063 0.6392
vn -0.9627 -0.1910 0.1915
vn -0.0000 1.0000 -0.0000
vn 0.9327 -0.3606 -0.0000
vn 0.3042 0.5428 0.7828
vn -0.1729 -0.9636 0.2037
vn -0.8744 0.3642 -0.3204
vn -0.6266 0.1100 -0.7715
vn 0.1874 -0.0214 0.9820
vn 0.8588 -0.5075 -0.0706
vn 0.2214 -0.4825 -0.8474
vn 0.9647 -0.1473 0.2183
vn 0.1506 0.9808 -0.1240
vn -0.1712 0.3368 0.9259
vn -0.7617 0.1063 -0.6392
vn 0.1698 -0.9846 -0.0426
vn -0.6428 -0.0011 0.7660
vn 0.8307 0.1267 0.5421
vn 0.1910 0.4025 -0.8953
vn 0.1422 -0.0831 -0.9863
vn 0.2628 -0.3718 -0.8903
vn -0.1398 0.1575 0.9776
vn 0.2120 -0.4548 -0.8650
vn -0.0847 -0.2858 -0.9545
vn 0.1032 0.9938 0.0407
vn -0.2350 0.4808 0.8448
vn -0.7670 0.0780 -0.6369
vn -0.6429 0.1819 0.7440
vn 0.7373 0.2857 0.6122
vn 0.6132 0.1819 -0.7687
vn -0.8088 -0.4666 0.3578
vn -0.4584 0.0187 -0.8886
vn 0.8078 0.4868 -0.3324
vn 0.4046 -0.0000 0.9145
vn -0.4046 -0.0000 -0.9145
vn 0.8088 0.4666 -0.3578
vn 0.3238 -0.8246 -0.4638
vn 0.8199 -0.0000 0.5724
vn -0.2331 0.8607 0.4526
vn -0.8312 0.0033 -0.5560
vn -0.3238 0.8246 0.4638
vn -0.8199 -0.0000 -0.5724
vn 0.0481 0.0032 0.9988
vn -0.9985 0.0556 -0.0000
vn 0.0179 0.0361 -0.9992
vn 0.9932 0.1167 0.0039
vn -0.0000 0.0556 0.9985
vn -0.0000 0.0556 -0.9985
vn 0.9985 0.0556 -0.0000
vn -0.0644 -0.8927 0.4460
vn -0.9962 -0.0173 -0.0854
vn 0.0103 0.9106 -0.4131
vn 0.9960 0.0166 0.0876
vn -0.9897 -0.0000 -0.1430
vn 0.0644 0.8927 -0.4460
vn 0.9897 -0.0000 0.1430
vn -0.7290 -0.6844 0.0055
vn -0.1461 0.0662 -0.9870
vn 0.7893 0.6016 -0.1228
vn 0.1538 -0.0000 0.9881
vn -0.7893 -0.6016 0.1228
vn -0.1538 -0.0000 -0.9881
vn 0.6443 -0.7441 0.1764
vn -0.2448 -0.0009 0.9696
vn -0.6995 0.7024 -0.1317
vn 0.2641 -0.0000 -0.9645
vn -0.2641 -0.0000 0.9645
vn -0.6443 0.7441 -0.1764
vn -0.4613 -0.8869 0.0253
vn -0.0086 0.0793 0.9968
vn 0.2545 0.9661 -0.0439
vn 0.0013 -0.0792 -0.9969
vn -0.3283 -0.9430 0.0546
vn -0.0113 0.0617 0.9980
vn 0.3283 0.9430 -0.0546
vn 0.0113 -0.0617 -0.9980
vn -0.0425 0.0475 0.9980
vn 0.4076 0.8947 -0.1828
vn 0.0864 -0.0273 -0.9959
vn 0.8028 -0.5715 0.1703
vn -0.3644 -0.0045 0.9312
vn -0.8757 0.4795 -0.0572
vn 0.2390 0.0228 -0.9708
vn -0.1928 0.0204 0.9810
vn -0.7734 0.6124 -0.1641
vn 0.2221 0.0204 -0.9748
vn 0.2222 0.0204 -0.9748
vn 0.8740 -0.4585 0.1607
vn -0.1994 0.0274 0.9795
vn -0.7355 0.6621 -0.1439
vn 0.2464 0.0079 -0.9691
vn -0.0453 0.4988 0.8655
vn 0.9658 -0.2461 -0.0811
vn 0.7709 -0.2835 -0.5703
vn -0.2470 0.9202 -0.3038
vn -0.1200 0.3732 0.9200
vn 0.4967 -0.7783 0.3841
vn 0.2203 -0.3186 -0.9220
vn -0.3965 0.8329 -0.3860
vn 0.0090 0.3315 0.9434
vn -0.3454 0.8338 -0.4307
vn 0.7484 -0.1924 0.6347
vn -0.6119 0.1185 0.7820
vn -0.6888 0.4295 -0.5841
vn 0.6716 0.1185 -0.7314
vn 0.7381 -0.2516 0.6260
vn -0.6300 0.0612 0.7742
vn -0.7074 0.3739 -0.5999
vn 0.6608 0.0612 -0.7480
vn -0.7074 0.3739 -0.5998
vn 0.8130 -0.1677 0.5576
vn -0.6702 0.4299 0.6050
vn -0.7712 0.5542 -0.3133
vn 0.7443 0.1426 -0.6525
s 0
usemtl wood1
f 46//1 47//1 51//1 50//1
f 205//2 206//2 295//2
f 45//3 46//3 50//3 49//3
f 44//4 41//4 45//4 48//4
f 43//5 44//5 48//5 47//5
f 42//1 43//1 47//1 46//1
f 152//6 153//6 296//6
f 153//7 204//7 296//7
f 41//3 42//3 46//3 45//3
f 204//8 154//8 205//8
f 40//4 37//4 41//4 44//4
f 39//5 40//5 44//5 43//5
f 38//1 39//1 43//1 42//1
f 37//3 38//3 42//3 41//3
f 40//9 39//9 38//9 37//9
f 36//10 35//10 34//10 33//10
f 245//11 152//11 244//11
f 245//12 155//12 152//12
f 32//13 31//13 30//13 29//13
f 20//14 19//14 18//14 17//14
f 16//15 15//15 14//15 13//15
f 12//16 11//16 10//16 9//16
f 297//17 360//17 361//17
f 360//18 134//18 361//18
f 4//19 1//19 8//19 5//19
f 3//20 4//20 5//20 6//20
f 54//21 150//21 149//21 53//21
f 359//22 392//22 391//22 360//22
f 148//23 151//23 90//23
f 360//24 391//24 390//24 134//24
f 134//25 390//25 393//25 133//25
f 204//26 387//26 388//26 296//26
f 296//22 388//22 389//22 295//22
f 295//22 389//22 386//22 205//22
f 54//27 55//27 89//27 150//27
f 53//28 149//28 148//28 56//28
f 154//29 385//29 384//29 205//29
f 205//22 384//22 383//22 206//22
f 206//22 383//22 382//22 207//22
f 155//22 381//22 378//22 152//22
f 152//22 378//22 379//22 153//22
f 153//30 379//30 380//30 207//30
f 298//31 359//31 360//31 297//31
f 55//32 56//32 91//32
f 207//33 380//33 381//33 155//33
f 1//34 2//34 7//34 8//34
f 152//35 296//35 295//35 244//35
f 2//36 3//36 6//36 7//36
f 91//37 56//37 148//37 90//37
f 135//38 297//38 361//38 134//38
f 246//39 244//39 295//39 206//39
f 150//40 89//40 90//40 151//40
f 359//41 298//41 132//41 133//41
f 207//42 382//42 385//42 154//42
f 133//43 393//43 392//43 359//43
f 205//29 386//29 387//29 204//29
f 207//44 155//44 246//44 206//44
f 154//45 204//45 153//45 207//45
f 47//5 48//5 52//5 51//5
f 48//4 45//4 49//4 52//4
f 49//46 50//46 2//46 1//46
f 50//47 51//47 3//47 2//47
f 51//48 52//48 4//48 3//48
f 52//49 49//49 1//49 4//49
f 57//50 58//50 54//50 53//50
f 58//51 59//51 55//51 54//51
f 59//52 60//52 56//52 55//52
f 60//53 57//53 53//53 56//53
f 61//50 62//50 58//50 57//50
f 62//54 63//54 59//54 58//54
f 63//55 64//55 60//55 59//55
f 64//53 61//53 57//53 60//53
f 65//50 66//50 62//50 61//50
f 66//54 67//54 63//54 62//54
f 67//55 68//55 64//55 63//55
f 68//53 65//53 61//53 64//53
f 69//50 70//50 66//50 65//50
f 70//54 71//54 67//54 66//54
f 71//55 72//55 68//55 67//55
f 72//53 69//53 65//53 68//53
f 73//50 74//50 70//50 69//50
f 74//54 75//54 71//54 70//54
f 75//55 76//55 72//55 71//55
f 76//53 73//53 69//53 72//53
f 77//50 78//50 74//50 73//50
f 78//54 79//54 75//54 74//54
f 79//55 80//55 76//55 75//55
f 80//53 77//53 73//53 76//53
f 81//50 82//50 78//50 77//50
f 82//54 83//54 79//54 78//54
f 83//55 84//55 80//55 79//55
f 84//53 81//53 77//53 80//53
f 85//50 86//50 82//50 81//50
f 86//54 87//54 83//54 82//54
f 87//55 88//55 84//55 83//55
f 88//53 85//53 81//53 84//53
f 33//50 34//50 86//50 85//50
f 34//54 35//54 87//54 86//54
f 35//55 36//55 88//55 87//55
f 36//53 33//53 85//53 88//53
f 92//56 93//56 90//56 89//56
f 93//57 94//57 91//57 90//57
f 94//58 95//58 55//58 91//58
f 95//59 92//59 89//59 55//59
f 96//56 97//56 93//56 92//56
f 97//57 98//57 94//57 93//57
f 98//60 99//60 95//60 94//60
f 99//61 96//61 92//61 95//61
f 100//56 101//56 97//56 96//56
f 101//57 102//57 98//57 97//57
f 102//60 103//60 99//60 98//60
f 103//61 100//61 96//61 99//61
f 104//56 105//56 101//56 100//56
f 105//57 106//57 102//57 101//57
f 106//60 107//60 103//60 102//60
f 107//61 104//61 100//61 103//61
f 108//56 109//56 105//56 104//56
f 109//57 110//57 106//57 105//57
f 110//60 111//60 107//60 106//60
f 111//61 108//61 104//61 107//61
f 112//56 113//56 109//56 108//56
f 113//57 114//57 110//57 109//57
f 114//60 115//60 111//60 110//60
f 115//61 112//61 108//61 111//61
f 116//56 117//56 113//56 112//56
f 117//57 118//57 114//57 113//57
f 118//60 119//60 115//60 114//60
f 119//61 116//61 112//61 115//61
f 120//56 121//56 117//56 116//56
f 121//57 122//57 118//57 117//57
f 122//60 123//60 119//60 118//60
f 123//61 120//61 116//61 119//61
f 124//56 125//56 121//56 120//56
f 125//57 126//57 122//57 121//57
f 126//60 127//60 123//60 122//60
f 127//61 124//61 120//61 123//61
f 128//56 129//56 125//56 124//56
f 129//57 130//57 126//57 125//57
f 130//60 131//60 127//60 126//60
f 131//61 128//61 124//61 127//61
f 29//56 30//56 129//56 128//56
f 30//57 31//57 130//57 129//57
f 31//60 32//60 131//60 130//60
f 32//61 29//61 128//61 131//61
f 136//62 137//62 133//62 132//62
f 137//63 138//63 134//63 133//63
f 138//64 139//64 135//64 134//64
f 139//65 136//65 132//65 135//65
f 140//66 141//66 137//66 136//66
f 141//63 142//63 138//63 137//63
f 142//67 143//67 139//67 138//67
f 143//68 140//68 136//68 139//68
f 144//66 145//66 141//66 140//66
f 145//63 146//63 142//63 141//63
f 146//67 147//67 143//67 142//67
f 147//68 144//68 140//68 143//68
f 148//66 149//66 145//66 144//66
f 149//63 150//63 146//63 145//63
f 150//67 151//67 147//67 146//67
f 151//68 148//68 144//68 147//68
f 156//69 157//69 379//69 378//69
f 157//70 158//70 380//70 379//70
f 158//71 159//71 381//71 380//71
f 159//72 156//72 378//72 381//72
f 160//69 161//69 157//69 156//69
f 161//73 162//73 158//73 157//73
f 162//74 163//74 159//74 158//74
f 163//75 160//75 156//75 159//75
f 164//69 165//69 161//69 160//69
f 165//73 166//73 162//73 161//73
f 166//74 167//74 163//74 162//74
f 167//75 164//75 160//75 163//75
f 168//69 169//69 165//69 164//69
f 169//73 170//73 166//73 165//73
f 170//74 171//74 167//74 166//74
f 171//75 168//75 164//75 167//75
f 172//69 173//69 169//69 168//69
f 173//73 174//73 170//73 169//73
f 174//74 175//74 171//74 170//74
f 175//75 172//75 168//75 171//75
f 176//69 177//69 173//69 172//69
f 177//73 178//73 174//73 173//73
f 178//74 179//74 175//74 174//74
f 179//75 176//75 172//75 175//75
f 180//69 181//69 177//69 176//69
f 181//73 182//73 178//73 177//73
f 182//74 183//74 179//74 178//74
f 183//75 180//75 176//75 179//75
f 184//69 185//69 181//69 180//69
f 185//73 186//73 182//73 181//73
f 186//74 187//74 183//74 182//74
f 187//75 184//75 180//75 183//75
f 188//69 189//69 185//69 184//69
f 189//73 190//73 186//73 185//73
f 190//74 191//74 187//74 186//74
f 191//75 188//75 184//75 187//75
f 192//69 193//69 189//69 188//69
f 193//73 194//73 190//73 189//73
f 194//74 195//74 191//74 190//74
f 195//75 192//75 188//75 191//75
f 196//69 197//69 193//69 192//69
f 197//73 198//73 194//73 193//73
f 198//74 199//74 195//74 194//74
f 199//75 196//75 192//75 195//75
f 200//69 201//69 197//69 196//69
f 201//73 202//73 198//73 197//73
f 202//74 203//74 199//74 198//74
f 203//75 200//75 196//75 199//75
f 9//69 10//69 201//69 200//69
f 10//73 11//73 202//73 201//73
f 11//74 12//74 203//74 202//74
f 12//75 9//75 200//75 203//75
f 208//76 209//76 384//76 385//76
f 209//77 210//77 383//77 384//77
f 210//78 211//78 382//78 383//78
f 211//79 208//79 385//79 382//79
f 212//80 213//80 209//80 208//80
f 213//81 214//81 210//81 209//81
f 214//78 215//78 211//78 210//78
f 215//79 212//79 208//79 211//79
f 216//80 217//80 213//80 212//80
f 217//81 218//81 214//81 213//81
f 218//78 219//78 215//78 214//78
f 219//79 216//79 212//79 215//79
f 220//80 221//80 217//80 216//80
f 221//81 222//81 218//81 217//81
f 222//78 223//78 219//78 218//78
f 223//79 220//79 216//79 219//79
f 224//80 225//80 221//80 220//80
f 225//81 226//81 222//81 221//81
f 226//78 227//78 223//78 222//78
f 227//79 224//79 220//79 223//79
f 228//80 229//80 225//80 224//80
f 229//81 230//81 226//81 225//81
f 230//78 231//78 227//78 226//78
f 231//79 228//79 224//79 227//79
f 232//80 233//80 229//80 228//80
f 233//81 234//81 230//81 229//81
f 234//78 235//78 231//78 230//78
f 235//79 232//79 228//79 231//79
f 236//80 237//80 233//80 232//80
f 237//81 238//81 234//81 233//81
f 238//78 239//78 235//78 234//78
f 239//79 236//79 232//79 235//79
f 240//80 241//80 237//80 236//80
f 241//81 242//81 238//81 237//81
f 242//78 243//78 239//78 238//78
f 243//79 240//79 236//79 239//79
f 13//80 14//80 241//80 240//80
f 14//81 15//81 242//81 241//81
f 15//78 16//78 243//78 242//78
f 16//79 13//79 240//79 243//79
f 247//82 248//82 245//82 244//82
f 248//83 249//83 155//83 245//83
f 249//84 250//84 246//84 155//84
f 250//85 247//85 244//85 246//85
f 251//82 252//82 248//82 247//82
f 252//86 253//86 249//86 248//86
f 253//87 254//87 250//87 249//87
f 254//85 251//85 247//85 250//85
f 255//82 256//82 252//82 251//82
f 256//86 257//86 253//86 252//86
f 257//87 258//87 254//87 253//87
f 258//85 255//85 251//85 254//85
f 259//82 260//82 256//82 255//82
f 260//86 261//86 257//86 256//86
f 261//87 262//87 258//87 257//87
f 262//85 259//85 255//85 258//85
f 263//82 264//82 260//82 259//82
f 264//86 265//86 261//86 260//86
f 265//87 266//87 262//87 261//87
f 266//85 263//85 259//85 262//85
f 267//82 268//82 264//82 263//82
f 268//86 269//86 265//86 264//86
f 269//87 270//87 266//87 265//87
f 270//85 267//85 263//85 266//85
f 17//82 18//82 268//82 267//82
f 18//86 19//86 269//86 268//86
f 19//87 20//87 270//87 269//87
f 20//85 17//85 267//85 270//85
f 271//88 272//88 22//88 21//88
f 272//89 273//89 23//89 22//89
f 273//90 274//90 24//90 23//90
f 274//91 271//91 21//91 24//91
f 275//92 276//92 272//92 271//92
f 276//93 277//93 273//93 272//93
f 277//94 278//94 274//94 273//94
f 278//95 275//95 271//95 274//95
f 279//92 280//92 276//92 275//92
f 280//93 281//93 277//93 276//93
f 281//94 282//94 278//94 277//94
f 282//95 279//95 275//95 278//95
f 283//92 284//92 280//92 279//92
f 284//93 285//93 281//93 280//93
f 285//94 286//94 282//94 281//94
f 286//95 283//95 279//95 282//95
f 287//92 288//92 284//92 283//92
f 288//93 289//93 285//93 284//93
f 289//94 290//94 286//94 285//94
f 290//95 287//95 283//95 286//95
f 291//92 292//92 288//92 287//92
f 292//93 293//93 289//93 288//93
f 293//94 294//94 290//94 289//94
f 294//95 291//95 287//95 290//95
f 389//92 388//92 292//92 291//92
f 388//96 387//96 293//96 292//96
f 387//97 386//97 294//97 293//97
f 386//98 389//98 291//98 294//98
f 299//99 300//99 298//99 297//99
f 300//100 301//100 132//100 298//100
f 301//101 302//101 135//101 132//101
f 302//102 299//102 297//102 135//102
f 303//99 304//99 300//99 299//99
f 304//103 305//103 301//103 300//103
f 305//104 306//104 302//104 301//104
f 306//105 303//105 299//105 302//105
f 307//99 308//99 304//99 303//99
f 308//103 309//103 305//103 304//103
f 309//104 310//104 306//104 305//104
f 310//105 307//105 303//105 306//105
f 311//99 312//99 308//99 307//99
f 312//103 313//103 309//103 308//103
f 313//104 314//104 310//104 309//104
f 314//105 311//105 307//105 310//105
f 315//99 316//99 312//99 311//99
f 316//103 317//103 313//103 312//103
f 317//104 318//104 314//104 313//104
f 318//105 315//105 311//105 314//105
f 319//99 320//99 316//99 315//99
f 320//103 321//103 317//103 316//103
f 321//104 322//104 318//104 317//104
f 322//105 319//105 315//105 318//105
f 323//99 324//99 320//99 319//99
f 324//103 325//103 321//103 320//103
f 325//104 326//104 322//104 321//104
f 326//105 323//105 319//105 322//105
f 327//99 328//99 324//99 323//99
f 328//103 329//103 325//103 324//103
f 329//104 330//104 326//104 325//104
f 330//106 327//106 323//106 326//106
f 331//99 332//99 328//99 327//99
f 332//103 333//103 329//103 328//103
f 333//104 334//104 330//104 329//104
f 334//105 331//105 327//105 330//105
f 335//99 336//99 332//99 331//99
f 336//103 337//103 333//103 332//103
f 337//104 338//104 334//104 333//104
f 338//105 335//105 331//105 334//105
f 339//99 340//99 336//99 335//99
f 340//103 341//103 337//103 336//103
f 341//104 342//104 338//104 337//104
f 342//106 339//106 335//106 338//106
f 21//107 22//107 340//107 339//107
f 22//108 23//108 341//108 340//108
f 23//109 24//109 342//109 341//109
f 24//110 21//110 339//110 342//110
f 343//111 344//111 26//111 25//111
f 344//112 345//112 27//112 26//112
f 345//113 346//113 28//113 27//113
f 346//114 343//114 25//114 28//114
f 347//115 348//115 344//115 343//115
f 348//116 349//116 345//116 344//116
f 349//117 350//117 346//117 345//117
f 350//118 347//118 343//118 346//118
f 351//115 352//115 348//115 347//115
f 352//116 353//116 349//116 348//116
f 353//117 354//117 350//117 349//117
f 354//118 351//118 347//118 350//118
f 355//115 356//115 352//115 351//115
f 356//116 357//116 353//116 352//116
f 357//117 358//117 354//117 353//117
f 358//118 355//118 351//118 354//118
f 393//119 392//119 356//119 355//119
f 392//116 391//116 357//116 356//116
f 391//117 390//117 358//117 357//117
f 390//120 393//120 355//120 358//120
f 362//121 363//121 6//121 5//121
f 363//122 364//122 7//122 6//122
f 364//123 365//123 8//123 7//123
f 365//124 362//124 5//124 8//124
f 366//125 367//125 363//125 362//125
f 367//126 368//126 364//126 363//126
f 368//127 369//127 365//127 364//127
f 369//128 366//128 362//128 365//128
f 370//125 371//125 367//125 366//125
f 371//126 372//126 368//126 367//126
f 372//129 373//129 369//129 368//129
f 373//128 370//128 366//128 369//128
f 374//125 375//125 371//125 370//125
f 375//126 376//126 372//126 371//126
f 376//127 377//127 373//127 372//127
f 377//128 374//128 370//128 373//128
f 25//130 26//130 375//130 374//130
f 26//131 27//131 376//131 375//131
f 27//132 28//132 377//132 376//132
f 28//133 25//133 374//133 377//133
